<?xml version="1.0" encoding="UTF-8" standalone="no"?>
<!DOCTYPE svg PUBLIC "-//W3C//DTD SVG 1.1//EN" "http://www.w3.org/Graphics/SVG/1.1/DTD/svg11.dtd">
<svg width="100%" height="100%" viewBox="0 0 402 402" version="1.1" xmlns="http://www.w3.org/2000/svg" xmlns:xlink="http://www.w3.org/1999/xlink" xml:space="preserve" xmlns:serif="http://www.serif.com/" style="fill-rule:evenodd;clip-rule:evenodd;stroke-linejoin:round;stroke-miterlimit:2;">
    <g transform="matrix(1,0,0,1,-37.8173,-37.8173)">
        <path d="M238.75,37.817C349.648,37.817 439.683,127.852 439.683,238.75C439.683,349.648 349.648,439.683 238.75,439.683C127.852,439.683 37.817,349.648 37.817,238.75C37.817,127.852 127.852,37.817 238.75,37.817ZM325.813,151.704C302.549,128.44 271.651,115.596 238.741,115.596C205.831,115.596 174.933,128.388 151.669,151.652C106.792,196.529 103.542,268.23 143.519,316.821C138,328.118 131.449,335.649 124.124,339.259C119.636,341.478 117.108,346.326 117.831,351.278C118.604,356.282 122.422,360.151 127.425,360.924C130.159,361.337 133.099,361.595 136.143,361.595C151.256,361.595 167.144,356.385 180.401,347.255C198.249,356.849 218.314,361.904 238.741,361.904C271.651,361.904 302.549,349.112 325.813,325.848C349.077,302.584 361.87,271.634 361.87,238.776C361.87,205.917 349.077,174.968 325.813,151.704ZM315.961,315.996C295.328,336.629 267.886,347.977 238.741,347.977C219.243,347.977 200.106,342.767 183.444,332.966C182.361,332.347 181.123,331.986 179.937,331.986C178.441,331.986 176.893,332.502 175.655,333.431C159.871,345.656 143.983,347.461 137.02,347.616C145.324,341.426 152.288,331.831 158.117,318.471C159.2,315.996 158.736,313.107 156.931,311.044C118.759,267.92 120.771,202.203 161.521,161.453C182.155,140.82 209.597,129.471 238.741,129.471C267.937,129.471 295.328,140.82 315.961,161.453C358.568,204.112 358.568,273.44 315.961,315.996Z" style="fill:rgb(0,255,255);"/>
    </g>
</svg>
