<?xml version="1.0" encoding="UTF-8" standalone="no"?>
<!DOCTYPE svg PUBLIC "-//W3C//DTD SVG 1.1//EN" "http://www.w3.org/Graphics/SVG/1.1/DTD/svg11.dtd">
<svg width="100%" height="100%" viewBox="0 0 60 60" version="1.1" xmlns="http://www.w3.org/2000/svg" xmlns:xlink="http://www.w3.org/1999/xlink" xml:space="preserve" xmlns:serif="http://www.serif.com/" style="fill-rule:evenodd;clip-rule:evenodd;stroke-linejoin:round;stroke-miterlimit:2;">
    <g transform="matrix(1,0,0,1,-3,-4)">
        <path d="M49.837,48.138L49.837,36.425C49.837,30.15 46.487,27.23 42.021,27.23C38.417,27.23 36.802,29.213 35.902,30.604L35.902,27.71L29.112,27.71C29.202,29.627 29.112,48.137 29.112,48.137L35.902,48.137L35.902,36.729C35.902,36.12 35.946,35.51 36.126,35.074C36.616,33.854 37.733,32.591 39.608,32.591C42.066,32.591 43.048,34.464 43.048,37.209L43.048,48.138L49.837,48.138ZM21.959,24.922C24.326,24.922 25.801,23.352 25.801,21.391C25.757,19.388 24.326,17.863 22.004,17.863C19.682,17.863 18.163,19.387 18.163,21.391C18.163,23.352 19.637,24.922 21.916,24.922L21.959,24.922ZM33,64C16.432,64 3,50.568 3,34C3,17.431 16.432,4 33,4C49.568,4 63,17.431 63,34C63,50.568 49.568,64 33,64ZM25.354,48.137L25.354,27.71L18.565,27.71L18.565,48.137L25.354,48.137Z" style="fill:rgb(0,255,255);"/>
    </g>
</svg>
